<svg id="change" width="25" height="22" viewBox="0 0 25 22" fill="none" xmlns="http://www.w3.org/2000/svg">
                <g filter="url(#filter0_d_1_12)">
                <path id="change" d="M9.17866 21H3.78818C2.25078 21 1 19.7765 1 18.2727V3.72727C1 2.22345 2.25078 1 3.78818 1H9.17866C10.7161 1 11.9668 2.22345 11.9668 3.72727V18.2727C11.9668 19.7765 10.7161 21 9.17866 21ZM3.78818 2.81818C3.27571 2.81818 2.85879 3.226 2.85879 3.72727V18.2727C2.85879 18.774 3.27571 19.1818 3.78818 19.1818H9.17866C9.69112 19.1818 10.108 18.774 10.108 18.2727V3.72727C10.108 3.226 9.69112 2.81818 9.17866 2.81818H3.78818Z" fill="#A2A2A2"/>
                <path id="change" d="M22.0033 10.0909H16.6128C15.0754 10.0909 13.8246 8.86745 13.8246 7.36364V3.72727C13.8246 2.22345 15.0754 1 16.6128 1H22.0033C23.5407 1 24.7915 2.22345 24.7915 3.72727V7.36364C24.7915 8.86745 23.5407 10.0909 22.0033 10.0909ZM16.6128 2.81818C16.1004 2.81818 15.6834 3.226 15.6834 3.72727V7.36364C15.6834 7.86491 16.1004 8.27273 16.6128 8.27273H22.0033C22.5158 8.27273 22.9327 7.86491 22.9327 7.36364V3.72727C22.9327 3.226 22.5158 2.81818 22.0033 2.81818H16.6128Z" fill="#A2A2A2"/>
                <path id="change" d="M22.0033 20.9991H16.6128C15.0754 20.9991 13.8246 19.7757 13.8246 18.2718V14.6355C13.8246 13.1317 15.0754 11.9082 16.6128 11.9082H22.0033C23.5407 11.9082 24.7915 13.1317 24.7915 14.6355V18.2718C24.7915 19.7757 23.5407 20.9991 22.0033 20.9991ZM16.6128 13.7264C16.1004 13.7264 15.6834 14.1342 15.6834 14.6355V18.2718C15.6834 18.7731 16.1004 19.1809 16.6128 19.1809H22.0033C22.5158 19.1809 22.9327 18.7731 22.9327 18.2718V14.6355C22.9327 14.1342 22.5158 13.7264 22.0033 13.7264H16.6128Z" fill="#A2A2A2"/>
                </g>
                <defs>
                <filter id="filter0_d_1_12" x="0.9" y="0.9" width="23.9915" height="20.2" filterUnits="userSpaceOnUse" color-interpolation-filters="sRGB">
                <feFlood flood-opacity="0" result="BackgroundImageFix"/>
                <feColorMatrix in="SourceAlpha" type="matrix" values="0 0 0 0 0 0 0 0 0 0 0 0 0 0 0 0 0 0 127 0" result="hardAlpha"/>
                <feOffset/>
                <feGaussianBlur stdDeviation="0.05"/>
                <feComposite in2="hardAlpha" operator="out"/>
                <feColorMatrix type="matrix" values="0 0 0 0 0 0 0 0 0 0 0 0 0 0 0 0 0 0 0.25 0"/>
                <feBlend mode="normal" in2="BackgroundImageFix" result="effect1_dropShadow_1_12"/>
                <feBlend mode="normal" in="SourceGraphic" in2="effect1_dropShadow_1_12" result="shape"/>
                </filter>
                </defs>
                </svg>